HIERARCHY
ROOT hip
{
	OFFSET 0.000000 0.000000 0.000000 
	CHANNELS 6 Xposition Yposition Zposition Xrotation Zrotation Yrotation
	JOINT abdomen
	{
		OFFSET 0.000000 3.402643 0.000000 
		CHANNELS 3 Xrotation Zrotation Yrotation
		JOINT chest
		{
			OFFSET 0.000000 8.438565 -0.680529 
			CHANNELS 3 Xrotation Zrotation Yrotation
			JOINT neck
			{
				OFFSET 0.000000 10.207942 -0.272212 
				CHANNELS 3 Xrotation Zrotation Yrotation
				JOINT head
				{
					OFFSET 0.000000 3.130431 0.000000 
					CHANNELS 3 Xrotation Zrotation Yrotation
					End Site
					{
						OFFSET 0.000000 3.130435 0.000000 
					}
				}
			}
			JOINT lCollar
			{
				OFFSET 3.470700 6.669187 -0.816635 
				CHANNELS 3 Yrotation Zrotation Xrotation
				JOINT lShldr
				{
					OFFSET 3.198488 0.000000 0.000000 
					CHANNELS 3 Zrotation Yrotation Xrotation
					JOINT lForeArm
					{
						OFFSET 10.139888 0.000000 0.000000 
						CHANNELS 3 Yrotation Zrotation Xrotation
						JOINT lHand
						{
							OFFSET 8.370511 0.000000 0.000000 
							CHANNELS 3 Zrotation Yrotation Xrotation
							End Site
							{
								OFFSET 4.083176 0.000000 0.000000 
							}
						}
					}
				}
			}
			JOINT rCollar
			{
				OFFSET -3.470700 6.669187 -0.816635 
				CHANNELS 3 Yrotation Zrotation Xrotation
				JOINT rShldr
				{
					OFFSET -3.198488 0.000000 0.000000 
					CHANNELS 3 Zrotation Yrotation Xrotation
					JOINT rForeArm
					{
						OFFSET -10.139888 0.000000 0.000000 
						CHANNELS 3 Yrotation Zrotation Xrotation
						JOINT rHand
						{
							OFFSET -8.370511 0.000000 0.000000 
							CHANNELS 3 Zrotation Yrotation Xrotation
							End Site
							{
								OFFSET -4.083176 0.000000 0.000000 
							}
						}
					}
				}
			}
		}
	}
	JOINT lThigh
	{
		OFFSET 5.308129 -1.633274 1.361059 
		CHANNELS 3 Xrotation Zrotation Yrotation
		JOINT lShin
		{
			OFFSET -2.041588 -20.007561 0.000000 
			CHANNELS 3 Xrotation Zrotation Yrotation
			JOINT lFoot
			{
				OFFSET 0.000000 -19.190928 -1.224953 
				CHANNELS 3 Xrotation Yrotation Zrotation
				End Site
				{
					OFFSET 0.000000 -2.449906 4.627600 
				}
			}
		}
	}
	JOINT rThigh
	{
		OFFSET -5.308129 -1.633274 1.361059 
		CHANNELS 3 Xrotation Zrotation Yrotation
		JOINT rShin
		{
			OFFSET 2.041588 -20.007561 0.000000 
			CHANNELS 3 Xrotation Zrotation Yrotation
			JOINT rFoot
			{
				OFFSET 0.000000 -19.190928 -1.224953 
				CHANNELS 3 Xrotation Yrotation Zrotation
				End Site
				{
					OFFSET 0.000000 -2.449906 4.627600 
				}
			}
		}
	}
}
MOTION
Frames: 16
Frame Time: 0.016667
0.122172 44.134453 -2.910572 3.134900 0.536306 1.006030 -20.726200 1.143060 0.100077 20.048201 2.890510 0.238063 27.053246 -23.855289 0.515919 21.037800 5.093300 2.071220 2.000000 -2.000000 0.000000 -84.404297 -3.015180 -148.832001 85.166496 -0.226369 0.136277 0.071411 -0.071893 -163.542999 -2.000000 2.000000 0.000000 67.693497 18.457600 -159.311996 -109.238998 0.173017 0.110107 -0.055553 0.019205 -143.796997 -4.446526 -5.263153 0.964751 13.358134 2.487443 1.199969 -5.869150 4.680491 0.788780 -11.652132 -3.356547 4.523892 23.287121 -3.366058 -1.664988 -14.327304 -11.656374 -3.808741 
0.112944 44.134586 -2.898451 3.125130 0.516809 1.112290 -20.756100 1.214770 0.041015 19.969900 3.046720 0.212997 26.841690 -23.475370 0.511661 20.755501 5.167000 2.016840 2.000000 -2.000000 0.000000 -84.648697 -3.015640 -149.056000 86.426300 -0.223371 0.136497 0.070791 -0.070644 -163.044998 -2.000000 2.000000 0.000000 68.992500 17.035200 -160.819000 -108.417999 0.174737 0.110693 -0.055709 0.020454 -144.246002 -4.482912 -5.244515 0.950182 13.433028 2.505567 1.171375 -5.883657 4.629538 0.777278 -11.607035 -3.334342 4.407493 23.235643 -3.373070 -1.637696 -14.331516 -11.647822 -3.814772 
0.101035 44.130844 -2.882859 3.105580 0.487564 1.130050 -20.717300 1.261870 0.055351 19.989401 3.115080 0.232891 26.602640 -23.023973 0.506886 20.472900 5.231400 1.959010 2.000000 -2.000000 0.000000 -84.746597 -3.269860 -149.212006 87.959503 -0.219717 0.136675 0.070575 -0.070202 -162.869003 -2.000000 2.000000 0.000000 70.252502 15.544600 -162.395004 -107.051003 0.177623 0.111616 -0.055444 0.018282 -143.464996 -4.489601 -5.199622 0.951417 13.570429 2.518687 1.189923 -5.988078 4.625467 0.769663 -11.575387 -3.298664 4.397769 23.257030 -3.366760 -1.655704 -14.374473 -11.620114 -3.826325 
0.089127 44.127117 -2.867277 3.086030 0.448567 1.147310 -20.688299 1.312340 0.078689 19.999100 3.183440 0.252290 26.359133 -22.581356 0.487025 20.200300 5.304940 1.904200 2.000000 -2.000000 0.000000 -84.844398 -3.524110 -149.376999 89.492699 -0.216060 0.136756 0.070348 -0.069734 -162.682999 -2.000000 2.000000 0.000000 71.561302 14.083400 -163.990005 -105.683998 0.180529 0.112470 -0.055210 0.016107 -142.682999 -4.506627 -5.158381 0.925334 13.697294 2.535131 1.209036 -6.059748 4.646292 0.771089 -11.545294 -3.250131 4.367845 23.286373 -3.368577 -1.655777 -14.438940 -11.585670 -3.827468 
0.083025 44.126343 -2.835496 3.086010 0.390059 1.173440 -20.659800 1.377650 0.002550 20.067499 3.300660 0.225792 26.268227 -22.396667 0.531826 20.123501 5.363490 1.903390 2.000000 -2.000000 0.000000 -84.971802 -3.993520 -149.699005 90.967400 -0.212376 0.156271 0.069736 -0.068451 -162.175995 -2.000000 2.000000 0.000000 72.694199 12.641200 -165.350998 -103.829002 0.184505 0.113517 -0.055022 0.014120 -141.970993 -4.471877 -5.097604 0.932131 13.679495 2.521538 1.198089 -6.094075 4.649116 0.774230 -11.496737 -3.194648 4.338508 23.258333 -3.357207 -1.653819 -14.439254 -11.596241 -3.844070 
0.076920 44.125580 -2.803727 3.085990 0.341301 1.209860 -20.631201 1.442990 -0.073504 20.136000 3.427640 0.199503 26.200893 -22.213530 0.557604 20.056499 5.421790 1.893580 2.000000 -2.000000 0.000000 -85.089500 -4.453150 -150.009995 92.432198 -0.208633 0.156160 0.069135 -0.067162 -161.667999 -2.000000 2.000000 0.000000 73.866096 11.218600 -166.720993 -101.983002 0.188491 0.114430 -0.054856 0.012103 -141.248001 -4.469738 -5.046903 0.923533 13.756330 2.537979 1.208329 -6.172734 4.660800 0.772173 -11.457762 -3.143963 4.318701 23.247076 -3.364483 -1.645632 -14.461679 -11.614203 -3.855828 
0.068394 44.128792 -2.773250 3.134840 0.399792 1.281730 -20.650700 1.429110 -0.110520 20.175100 3.515550 0.181724 26.102486 -22.004137 0.541304 19.978399 5.433460 1.879110 2.000000 -2.000000 0.000000 -85.040901 -5.049180 -150.164993 94.014198 -0.204595 0.155932 0.068692 -0.066192 -161.287003 -2.000000 2.000000 0.000000 74.999001 9.727720 -168.112000 -99.678101 0.193506 0.115389 -0.054804 0.011394 -140.994003 -4.384915 -5.096198 0.874138 13.541496 2.514031 1.189895 -6.082975 4.613541 0.768004 -11.410996 -3.215569 4.235615 23.218855 -3.357362 -1.654242 -14.448145 -11.600585 -3.847633 
0.059868 44.132141 -2.742773 3.173930 0.458280 1.363380 -20.660500 1.421020 -0.159904 20.223900 3.613220 0.164622 25.998917 -21.803453 0.515652 19.900499 5.454530 1.857490 2.000000 -2.000000 0.000000 -84.982697 -5.635440 -150.320007 95.596298 -0.200564 0.155593 0.068255 -0.065219 -160.906006 -2.000000 2.000000 0.000000 76.170998 8.266190 -169.531006 -97.373497 0.198556 0.116146 -0.054757 0.010712 -140.750000 -4.309900 -5.147990 0.815124 13.350009 2.525040 1.174904 -6.024753 4.557112 0.761839 -11.488558 -3.276117 4.156338 23.327238 -3.361184 -1.663624 -14.446871 -11.602062 -3.848542 
0.036230 44.132263 -2.720642 3.252120 0.584994 1.078260 -20.739300 1.495720 -0.127543 20.145500 3.867090 0.187181 25.739050 -21.426836 0.566319 19.667000 5.527140 1.834020 2.000000 -2.000000 0.000000 -84.973396 -6.290420 -150.651001 97.158798 -0.196595 0.155149 0.067792 -0.064168 -160.496002 -2.000000 2.000000 0.000000 77.128098 6.765530 -170.912003 -94.775803 0.204279 0.116754 -0.054704 0.009893 -140.457001 -4.208878 -5.258659 1.004800 13.057734 2.489799 1.156724 -5.892308 4.649010 0.786320 -11.656451 -3.365681 4.377173 23.467215 -3.350006 -1.670365 -14.427265 -11.485157 -3.805464 
0.012591 44.132263 -2.698500 3.320580 0.721443 0.793930 -20.818001 1.570360 -0.095330 20.067101 4.130710 0.218734 25.483826 -21.063213 0.614492 19.443399 5.599530 1.802110 2.000000 -2.000000 0.000000 -84.964203 -6.935660 -150.992004 98.711502 -0.192663 0.154600 0.067347 -0.063139 -160.095993 -2.000000 2.000000 0.000000 -101.875999 174.705994 7.688420 -92.178200 0.210024 0.117103 -0.054656 0.009074 -140.164001 -4.092120 -5.366059 1.184219 12.704002 2.466197 1.150335 -5.715392 4.707748 0.814988 -11.830833 -3.458324 4.569037 23.615894 -3.344278 -1.667714 -14.417925 -11.370430 -3.764685 
0.005555 44.126095 -2.667259 3.310880 0.809194 0.945381 -20.651100 1.447360 -0.200883 20.390200 4.082010 0.154198 25.006571 -20.362427 0.723398 19.044500 5.724210 1.773710 2.000000 -2.000000 0.000000 -84.593803 -8.069210 -151.341003 100.235001 -0.188821 0.153959 0.067165 -0.062711 -159.929993 -2.000000 2.000000 0.000000 -100.762001 175.503006 6.221680 -89.121597 0.216945 0.136710 -0.054564 0.007271 -139.518997 -3.991722 -5.454550 1.081462 12.586427 2.452857 1.131592 -5.662189 4.682066 0.800931 -11.794321 -3.579694 4.438909 23.763893 -3.349479 -1.686702 -14.519891 -11.353395 -3.766899 
-0.001482 44.119781 -2.636006 3.291430 0.906705 1.087450 -20.474400 1.324280 -0.306638 20.713301 4.042950 0.089830 24.528645 -19.647278 0.830598 18.645800 5.858470 1.746100 2.000000 -2.000000 0.000000 -84.233299 -9.193030 -151.710007 101.749001 -0.185022 0.153220 0.066973 -0.062258 -159.753998 -2.000000 2.000000 0.000000 -99.619301 176.261002 4.745260 -86.065002 0.224231 0.136403 -0.054491 0.005441 -138.865005 -3.882911 -5.545509 0.988020 12.441755 2.427340 1.122312 -5.629878 4.603481 0.807956 -11.813249 -3.683583 4.315549 23.959917 -3.358132 -1.686509 -14.621230 -11.366580 -3.787234 
-0.013322 44.112320 -2.623604 3.262080 0.848233 0.849264 -20.386999 1.391340 -0.266836 20.840599 4.101510 0.118611 24.032627 -19.273165 0.886977 18.360901 5.857080 1.705000 2.000000 -2.000000 0.000000 -83.970299 -10.365400 -151.942001 103.233002 -0.181317 0.152399 0.066804 -0.061854 -159.597000 -2.000000 2.000000 0.000000 -98.886803 177.126999 3.239290 -83.037598 0.231422 0.135717 -0.054405 0.001476 -137.449005 -3.973366 -5.481853 1.205218 12.722165 2.475219 1.150953 -5.777451 4.627692 0.803656 -11.834488 -3.574745 4.417284 23.932837 -3.345248 -1.703620 -14.482183 -11.267863 -3.749150 
-0.025162 44.104988 -2.611179 3.222960 0.780015 0.620222 -20.299500 1.455030 -0.236036 20.967899 4.160050 0.157416 23.534885 -18.884726 0.940090 18.076401 5.865000 1.666320 2.000000 -2.000000 0.000000 -83.707397 -11.528000 -152.184006 104.708000 -0.177659 0.151488 0.066625 -0.061425 -159.431000 -2.000000 2.000000 0.000000 -98.125000 177.973007 1.723940 -80.010300 0.238566 0.134652 -0.054418 0.007249 -136.022995 -3.980158 -5.380897 1.423792 12.890141 2.482706 1.158498 -5.916199 4.650852 0.830447 -11.826612 -3.484236 4.492419 23.972366 -3.344514 -1.703035 -14.446576 -11.172139 -3.705803 
-0.014310 44.102798 -2.595991 3.193680 0.809288 0.894898 -20.270399 1.450830 -0.441895 20.987499 4.277220 0.052307 23.136017 -18.434994 0.996755 17.822800 5.928870 1.634730 2.000000 -2.000000 0.000000 -83.464203 -12.720000 -152.473999 106.005997 -0.174457 0.150609 0.066323 -0.060692 -159.147995 -2.000000 2.000000 0.000000 -97.705002 178.789993 0.432785 -77.022003 0.245553 0.133232 -0.054418 0.007249 -136.022995 -3.964943 -5.415337 1.255688 12.967365 2.494798 1.158407 -5.929470 4.540313 0.793521 -11.755753 -3.531773 4.311336 23.971603 -3.350342 -1.704242 -14.490250 -11.261924 -3.736275 
-0.003460 44.100742 -2.580814 3.154630 0.838571 1.169400 -20.250799 1.446560 -0.647941 21.007200 4.394400 -0.042956 22.749268 -17.967865 1.051859 17.569099 5.992760 1.612380 2.000000 -2.000000 0.000000 -83.221001 -13.912100 -152.774002 107.305000 -0.171276 0.149657 0.066015 -0.059931 -158.854996 -2.000000 2.000000 0.000000 -97.265602 179.598007 -0.868178 -74.043503 0.252434 0.131456 -0.054418 0.007277 -136.033005 -3.926802 -5.454197 1.084144 12.946808 2.496244 1.149176 -5.909568 4.432062 0.777002 -11.658696 -3.594847 4.122705 24.020945 -3.349870 -1.703676 -14.615082 -11.344021 -3.773671 
